<?xml version="1.0" encoding="utf-8"?>
<!-- Generator: Adobe Illustrator 15.0.0, SVG Export Plug-In . SVG Version: 6.00 Build 0)  -->
<!DOCTYPE svg PUBLIC "-//W3C//DTD SVG 1.1//EN" "http://www.w3.org/Graphics/SVG/1.1/DTD/svg11.dtd">
<svg version="1.1" id="Layer_1" xmlns="http://www.w3.org/2000/svg" xmlns:xlink="http://www.w3.org/1999/xlink" x="0px" y="0px"
	 width="612px" height="612px" viewBox="0 90 612 612" enable-background="new 0 90 612 612" xml:space="preserve">
<rect y="90" fill="#FFE500" width="612" height="612"/>
<g>
	<polygon fill="#2C2C2C" points="181.888,462.604 148.72,462.604 148.72,346.248 99.236,346.248 99.236,317.895 231.373,317.895 
		231.373,346.248 181.888,346.248 	"/>
	<path fill="#2C2C2C" d="M538.71,329.129c0,2.942-1.07,5.617-3.21,7.757c-2.14,2.14-4.814,3.21-7.757,3.21s-5.617-1.07-7.757-3.21
		c-2.141-2.14-3.21-4.814-3.21-7.757s1.069-5.617,3.21-7.757c2.14-2.14,4.814-3.21,8.024-3.21c2.942,0,5.617,1.07,7.757,3.21
		C537.64,323.512,538.71,326.187,538.71,329.129 M536.57,329.129c0-2.675-0.803-4.815-2.675-6.687
		c-1.873-1.873-4.013-2.675-6.42-2.675s-4.814,0.802-6.42,2.675c-1.872,1.872-2.675,4.012-2.675,6.687s0.803,4.815,2.675,6.687
		c1.873,1.873,4.013,2.675,6.42,2.675s4.547-0.802,6.42-2.675C535.768,333.944,536.57,331.804,536.57,329.129 M532.825,335.281
		h-2.675l-1.872-4.814h-2.942v4.814h-2.675v-12.304h5.617c1.604,0,2.675,0.268,3.477,1.07c0.803,0.802,1.07,1.605,1.07,2.675
		c0,1.605-0.803,2.675-2.407,3.209L532.825,335.281z M525.336,328.327h2.675c1.604,0,2.14-0.535,2.14-1.873
		c0-1.07-0.803-1.605-2.14-1.605h-2.942v3.478H525.336z"/>
	<polygon fill="#2C2C2C" points="516.776,462.604 466.757,387.976 513.299,317.895 475.049,317.895 445.358,366.31 415.668,317.895 
		377.418,317.895 423.96,387.976 373.94,462.604 412.726,462.604 445.358,410.444 478.259,462.604 	"/>
	<path fill="#2C2C2C" d="M275.507,409.642v52.962h-33.435V317.895h77.837c33.436,0.803,46.007,6.955,46.007,40.657
		c0,21.934-2.942,35.041-18.724,37.983l-4.28,0.803c15.782,1.604,23.004,12.839,23.004,33.702v31.296h-33.168V431.04
		c0-12.571-6.687-21.131-20.596-21.398H275.507z M306,381.289c21.666,0,26.748,0,26.748-18.189c0-16.852-4.012-16.852-24.876-16.852
		h-32.365v35.041H306L306,381.289z"/>
</g>
</svg>
